{"title":"Coldplay Ft. Rihanna - Princess Of China [Music Video] 1080p [Sb","uid":8495764,"size":103259425,"categoryP":"video","categoryS":"music_videos","magnet":"?xt=urn:btih:37adb71ed40c39d246c85eec5e1d2f3683cf95d7&amp;dn=Coldplay+Ft.+Rihanna+-+Princess+Of+China+%5BMusic+Video%5D+1080p+%5BSb&amp;tr=udp%3A%2F%2Ftracker.openbittorrent.com%3A80&amp;tr=udp%3A%2F%2Fopen.demonii.com%3A1337&amp;tr=udp%3A%2F%2Ftracker.coppersurfer.tk%3A6969&amp;tr=udp%3A%2F%2Fexodus.desync.com%3A6969","seeders":2,"leechers":0,"uploader":"Sbyky","files":-1,"time":1369096017,"description":"[IMG]http://www.shotpix.com/images/20135137775744511690.jpg[/IMG]\n\nGeneral\nComplete name                            : Coldplay Ft. Rihanna - Princess Of China [Music Video] 1080p [Sbyky].mp4\nFormat                                   : MPEG-4\nFormat profile                           : Base Media / Version 2\nCodec ID                                 : mp42\nFile size                                : 98.5 MiB\nDuration                                 : 3mn 34s\nOverall bit rate mode                    : Variable\nOverall bit rate                         : 3 846 Kbps\nEncoded date                             : UTC 2013-04-08 03:04:59\nTagged date                              : UTC 2013-04-08 03:04:59\n\nVideo\nID                                       : 1\nFormat                                   : AVC\nFormat/Info                              : Advanced Video Codec\nFormat profile                           : &lt;a class=&quot;__cf_email__&quot; href=&quot;/cdn-cgi/l/email-protection&quot; data-cfemail=&quot;f1b9989699b1bdc5dfc1&quot;&gt;[email&amp;#160;protected]&lt;/a&gt;&lt;script cf-hash='f9e31' type=&quot;text/javascript&quot;&gt;\n/* &lt;![CDATA[ */!function(){try{var t=&quot;currentScript&quot;in document?document.currentScript:function(){for(var t=document.getElementsByTagName(&quot;script&quot;),e=t.length;e--;)if(t[e].getAttribute(&quot;cf-hash&quot;))return t[e]}();if(t&amp;&amp;t.previousSibling){var e,r,n,i,c=t.previousSibling,a=c.getAttribute(&quot;data-cfemail&quot;);if(a){for(e=&quot;&quot;,r=parseInt(a.substr(0,2),16),n=2;a.length-n;n+=2)i=parseInt(a.substr(n,2),16)^r,e+=String.fromCharCode(i);e=document.createTextNode(e),c.parentNode.replaceChild(e,c)}}}catch(u){}}();/* ]]&gt; */&lt;/script&gt;\nFormat settings, CABAC                   : Yes\nFormat settings, ReFrames                : 1 frame\nCodec ID                                 : avc1\nCodec ID/Info                            : Advanced Video Coding\nDuration                                 : 3mn 34s\nBit rate                                 : 3 651 Kbps\nMaximum bit rate                         : 13.7 Mbps\nWidth                                    : 1 920 pixels\nHeight                                   : 1 080 pixels\nDisplay aspect ratio                     : 16:9\nFrame rate mode                          : Constant\nFrame rate                               : 23.976 fps\nColor space                              : YUV\nChroma subsampling                       : 4:2:0\nBit depth                                : 8 bits\nScan type                                : Progressive\nBits/(Pixel*Frame)                       : 0.073\nStream size                              : 93.5 MiB (95%)\nTagged date                              : UTC 2013-04-08 03:05:06\n\nAudio\nID                                       : 2\nFormat                                   : AAC\nFormat/Info                              : Advanced Audio Codec\nFormat profile                           : LC\nCodec ID                                 : 40\nDuration                                 : 3mn 34s\nBit rate mode                            : Variable\nBit rate                                 : 192 Kbps\nMaximum bit rate                         : 201 Kbps\nChannel(s)                               : 2 channels\nChannel positions                        : Front: L R\nSampling rate                            : 44.1 KHz\nCompression mode                         : Lossy\nStream size                              : 4.92 MiB (5%)\nTitle                                    : IsoMedia File Produced by Google, 5-11-2011\nEncoded date                             : UTC 2013-04-08 03:05:03\nTagged date                              : UTC 2013-04-08 03:05:06\n\nShared By Sbyky\n[IMG]http://www.shotpix.com/images/76014917432015785852.gif[/IMG]\n[IMG]http://www.shotpix.com/images/54100788659511547411.gif[/IMG]","torrent":{"xt":"urn:btih:37adb71ed40c39d246c85eec5e1d2f3683cf95d7","amp;dn":"Coldplay+Ft.+Rihanna+-+Princess+Of+China+%5BMusic+Video%5D+1080p+%5BSb","amp;tr":["udp%3A%2F%2Ftracker.openbittorrent.com%3A80","udp%3A%2F%2Fopen.demonii.com%3A1337","udp%3A%2F%2Ftracker.coppersurfer.tk%3A6969","udp%3A%2F%2Fexodus.desync.com%3A6969"],"infoHash":"37adb71ed40c39d246c85eec5e1d2f3683cf95d7","infoHashBuffer":{"type":"Buffer","data":[55,173,183,30,212,12,57,210,70,200,94,236,94,29,47,54,131,207,149,215]},"announce":[],"urlList":[]}}